<?xml version="1.0" encoding="UTF-8" standalone="no"?>
<!DOCTYPE svg PUBLIC "-//W3C//DTD SVG 1.1//EN"
 "http://www.w3.org/Graphics/SVG/1.1/DTD/svg11.dtd">
<!-- Generated by graphviz version 2.47.1 (20210417.1919)
 -->
<!-- Title: G Pages: 1 -->
<svg width="403pt" height="657pt"
 viewBox="0.00 0.00 403.00 657.37" xmlns="http://www.w3.org/2000/svg" xmlns:xlink="http://www.w3.org/1999/xlink">
<g id="graph0" class="graph" transform="scale(1 1) rotate(0) translate(4 653.37)">
<title>G</title><style>.edge>path:hover{stroke-width:8}</style>
<polygon fill="white" stroke="transparent" points="-4,4 -4,-653.37 399,-653.37 399,4 -4,4"/>
<!-- src_core_config -->
<g id="node1" class="node">
<title>src_core_config</title><style>.edge>path:hover{stroke-width:8}</style>
<ellipse fill="#4778c2" stroke="black" cx="139" cy="-620.38" rx="30.31" ry="28.98"/>
<text text-anchor="middle" x="139" y="-628.88" font-family="Helvetica,sans-Serif" font-size="10.00" fill="#ffffff">src.</text>
<text text-anchor="middle" x="139" y="-617.88" font-family="Helvetica,sans-Serif" font-size="10.00" fill="#ffffff">core.</text>
<text text-anchor="middle" x="139" y="-606.88" font-family="Helvetica,sans-Serif" font-size="10.00" fill="#ffffff">config</text>
</g>
<!-- src_db -->
<g id="node2" class="node">
<title>src_db</title><style>.edge>path:hover{stroke-width:8}</style>
<ellipse fill="#2365c8" stroke="black" cx="82" cy="-465.39" rx="27" ry="18"/>
<text text-anchor="middle" x="82" y="-462.89" font-family="Helvetica,sans-Serif" font-size="10.00" fill="#ffffff">src.db</text>
</g>
<!-- src_db&#45;&gt;src_core_config -->
<g id="edge6" class="edge">
<title>src_db&#45;&gt;src_core_config</title><style>.edge>path:hover{stroke-width:8}</style>
<path fill="none" stroke="black" d="M95.81,-481.15C108.13,-494.78 126.14,-515.97 139,-536.39"/>
<path fill="none" stroke="black" d="M139,-538.39C146.96,-551.03 148.31,-567.13 147.17,-581.63"/>
<polygon fill="#2365c8" stroke="black" points="143.66,-581.5 145.96,-591.84 150.61,-582.32 143.66,-581.5"/>
</g>
<!-- sqlalchemy -->
<g id="node11" class="node">
<title>sqlalchemy</title><style>.edge>path:hover{stroke-width:8}</style>
<polygon fill="#0cf368" stroke="black" points="253,-638.38 250,-642.38 229,-642.38 226,-638.38 187,-638.38 187,-602.38 253,-602.38 253,-638.38"/>
<text text-anchor="middle" x="220" y="-617.88" font-family="Helvetica,sans-Serif" font-size="10.00" fill="#000000">sqlalchemy</text>
</g>
<!-- src_db&#45;&gt;sqlalchemy -->
<g id="edge4" class="edge">
<title>src_db&#45;&gt;sqlalchemy</title><style>.edge>path:hover{stroke-width:8}</style>
<path fill="none" stroke="black" d="M139,-538.39C152.66,-560.09 173.1,-580.47 190.03,-595.36"/>
<polygon fill="#2365c8" stroke="black" points="188.14,-598.35 198.01,-602.21 192.7,-593.04 188.14,-598.35"/>
</g>
<!-- src_facade -->
<g id="node3" class="node">
<title>src_facade</title><style>.edge>path:hover{stroke-width:8}</style>
<ellipse fill="#3a69b0" stroke="black" cx="241" cy="-314.97" rx="36.49" ry="18"/>
<text text-anchor="middle" x="241" y="-312.47" font-family="Helvetica,sans-Serif" font-size="10.00" fill="#ffffff">src.facade</text>
</g>
<!-- src_facade&#45;&gt;src_db -->
<g id="edge7" class="edge">
<title>src_facade&#45;&gt;src_db</title><style>.edge>path:hover{stroke-width:8}</style>
<path fill="none" stroke="black" d="M234.22,-332.67C225.13,-353.34 207.31,-388.57 183,-411.39 163.35,-429.85 136.03,-443.66 114.76,-452.55"/>
<polygon fill="#3a69b0" stroke="black" points="113.44,-449.31 105.46,-456.29 116.05,-455.81 113.44,-449.31"/>
</g>
<!-- src_models -->
<g id="node5" class="node">
<title>src_models</title><style>.edge>path:hover{stroke-width:8}</style>
<ellipse fill="#2160bf" stroke="black" cx="277" cy="-465.39" rx="38.03" ry="18"/>
<text text-anchor="middle" x="277" y="-462.89" font-family="Helvetica,sans-Serif" font-size="10.00" fill="#ffffff">src.models</text>
</g>
<!-- src_facade&#45;&gt;src_models -->
<g id="edge11" class="edge">
<title>src_facade&#45;&gt;src_models</title><style>.edge>path:hover{stroke-width:8}</style>
<path fill="none" stroke="black" d="M352,-391.18C350.21,-415.26 330.13,-434.04 311.2,-446.55"/>
<polygon fill="#3a69b0" stroke="black" points="309.3,-443.61 302.65,-451.86 312.99,-449.56 309.3,-443.61"/>
<path fill="none" stroke="black" d="M274.18,-322.74C307.89,-331.76 354.82,-351.19 352,-389.18"/>
</g>
<!-- src_repositories -->
<g id="node6" class="node">
<title>src_repositories</title><style>.edge>path:hover{stroke-width:8}</style>
<ellipse fill="#3d6eb8" stroke="black" cx="277" cy="-390.18" rx="47.25" ry="21.43"/>
<text text-anchor="middle" x="277" y="-393.18" font-family="Helvetica,sans-Serif" font-size="10.00" fill="#ffffff">src.</text>
<text text-anchor="middle" x="277" y="-382.18" font-family="Helvetica,sans-Serif" font-size="10.00" fill="#ffffff">repositories</text>
</g>
<!-- src_facade&#45;&gt;src_repositories -->
<g id="edge14" class="edge">
<title>src_facade&#45;&gt;src_repositories</title><style>.edge>path:hover{stroke-width:8}</style>
<path fill="none" stroke="black" d="M249.17,-332.58C253.18,-340.74 258.14,-350.82 262.75,-360.2"/>
<polygon fill="#3a69b0" stroke="black" points="259.65,-361.82 267.2,-369.25 265.93,-358.73 259.65,-361.82"/>
</g>
<!-- src_main -->
<g id="node4" class="node">
<title>src_main</title><style>.edge>path:hover{stroke-width:8}</style>
<ellipse fill="#3a5988" stroke="black" cx="245" cy="-18" rx="31.58" ry="18"/>
<text text-anchor="middle" x="245" y="-15.5" font-family="Helvetica,sans-Serif" font-size="10.00" fill="#ffffff">src.main</text>
</g>
<!-- src_main&#45;&gt;src_db -->
<g id="edge8" class="edge">
<title>src_main&#45;&gt;src_db</title><style>.edge>path:hover{stroke-width:8}</style>
<path fill="none" stroke="black" d="M82,-391.18C75.18,-405.32 74.94,-422.86 76.52,-437.22"/>
<polygon fill="#3a5988" stroke="black" points="73.1,-438.09 78,-447.48 80.03,-437.08 73.1,-438.09"/>
</g>
<!-- src_main&#45;&gt;src_models -->
<g id="edge12" class="edge">
<title>src_main&#45;&gt;src_models</title><style>.edge>path:hover{stroke-width:8}</style>
<path fill="none" stroke="black" d="M313,-138.99C333.3,-189.96 323.55,-206.76 332,-260.97 340.88,-317.95 356.27,-331.66 352,-389.18"/>
</g>
<!-- src_routers_apis -->
<g id="node7" class="node">
<title>src_routers_apis</title><style>.edge>path:hover{stroke-width:8}</style>
<ellipse fill="#3a69b0" stroke="black" cx="245" cy="-137.99" rx="35.21" ry="28.98"/>
<text text-anchor="middle" x="245" y="-146.49" font-family="Helvetica,sans-Serif" font-size="10.00" fill="#ffffff">src.</text>
<text text-anchor="middle" x="245" y="-135.49" font-family="Helvetica,sans-Serif" font-size="10.00" fill="#ffffff">routers.</text>
<text text-anchor="middle" x="245" y="-124.49" font-family="Helvetica,sans-Serif" font-size="10.00" fill="#ffffff">apis</text>
</g>
<!-- src_main&#45;&gt;src_routers_apis -->
<g id="edge15" class="edge">
<title>src_main&#45;&gt;src_routers_apis</title><style>.edge>path:hover{stroke-width:8}</style>
<path fill="none" stroke="black" d="M245,-73C244.66,-81.37 244.52,-90.35 244.49,-98.87"/>
<polygon fill="#3a5988" stroke="black" points="240.99,-98.95 244.51,-108.95 247.99,-98.94 240.99,-98.95"/>
</g>
<!-- src_routers_schemas -->
<g id="node8" class="node">
<title>src_routers_schemas</title><style>.edge>path:hover{stroke-width:8}</style>
<ellipse fill="#3b76ce" stroke="black" cx="245" cy="-231.97" rx="39.7" ry="28.98"/>
<text text-anchor="middle" x="245" y="-240.47" font-family="Helvetica,sans-Serif" font-size="10.00" fill="#ffffff">src.</text>
<text text-anchor="middle" x="245" y="-229.47" font-family="Helvetica,sans-Serif" font-size="10.00" fill="#ffffff">routers.</text>
<text text-anchor="middle" x="245" y="-218.47" font-family="Helvetica,sans-Serif" font-size="10.00" fill="#ffffff">schemas</text>
</g>
<!-- src_main&#45;&gt;src_routers_schemas -->
<g id="edge16" class="edge">
<title>src_main&#45;&gt;src_routers_schemas</title><style>.edge>path:hover{stroke-width:8}</style>
<path fill="none" stroke="black" d="M313,-138.99C323.04,-164.18 303.02,-188.67 282.15,-206.04"/>
<polygon fill="#3a5988" stroke="black" points="279.86,-203.39 274.17,-212.33 284.19,-208.89 279.86,-203.39"/>
<path fill="none" stroke="black" d="M245,-73C243.97,-98.25 270.93,-91.34 289,-109 300.72,-120.45 306.94,-121.77 313,-136.99"/>
</g>
<!-- fastapi -->
<g id="node9" class="node">
<title>fastapi</title><style>.edge>path:hover{stroke-width:8}</style>
<polygon fill="#c04040" stroke="black" points="54,-555.39 51,-559.39 30,-559.39 27,-555.39 0,-555.39 0,-519.39 54,-519.39 54,-555.39"/>
<text text-anchor="middle" x="27" y="-534.89" font-family="Helvetica,sans-Serif" font-size="10.00" fill="#ffffff">fastapi</text>
</g>
<!-- src_main&#45;&gt;fastapi -->
<g id="edge2" class="edge">
<title>src_main&#45;&gt;fastapi</title><style>.edge>path:hover{stroke-width:8}</style>
<path fill="none" stroke="black" d="M27,-466.39C21.05,-479.59 20.64,-495.67 21.9,-509.09"/>
<polygon fill="#3a5988" stroke="black" points="18.45,-509.7 23.2,-519.17 25.39,-508.8 18.45,-509.7"/>
<path fill="none" stroke="black" d="M245.35,-36.19C245.48,-46.57 245.49,-60.05 245,-72"/>
<path fill="none" stroke="black" d="M245,-73C243.97,-98.25 216.16,-88.78 201,-109 119.84,-217.24 140.81,-267.34 82,-389.18"/>
<path fill="none" stroke="black" d="M82,-391.18C67.25,-429.11 43.71,-427.28 27,-464.39"/>
</g>
<!-- starlette -->
<g id="node12" class="node">
<title>starlette</title><style>.edge>path:hover{stroke-width:8}</style>
<polygon fill="#a253b6" stroke="black" points="395,-249.97 392,-253.97 371,-253.97 368,-249.97 341,-249.97 341,-213.97 395,-213.97 395,-249.97"/>
<text text-anchor="middle" x="368" y="-229.47" font-family="Helvetica,sans-Serif" font-size="10.00" fill="#ffffff">starlette</text>
</g>
<!-- src_main&#45;&gt;starlette -->
<g id="edge18" class="edge">
<title>src_main&#45;&gt;starlette</title><style>.edge>path:hover{stroke-width:8}</style>
<path fill="none" stroke="black" d="M313,-138.99C322.44,-162.69 337.54,-187.39 349.54,-205.22"/>
<polygon fill="#3a5988" stroke="black" points="346.93,-207.61 355.48,-213.87 352.7,-203.65 346.93,-207.61"/>
</g>
<!-- src_models&#45;&gt;sqlalchemy -->
<g id="edge5" class="edge">
<title>src_models&#45;&gt;sqlalchemy</title><style>.edge>path:hover{stroke-width:8}</style>
<path fill="none" stroke="black" d="M270.68,-483.35C260.8,-509.89 241.59,-561.44 229.87,-592.9"/>
<polygon fill="#2160bf" stroke="black" points="226.56,-591.76 226.35,-602.35 233.12,-594.2 226.56,-591.76"/>
</g>
<!-- src_repositories&#45;&gt;src_db -->
<g id="edge9" class="edge">
<title>src_repositories&#45;&gt;src_db</title><style>.edge>path:hover{stroke-width:8}</style>
<path fill="none" stroke="black" d="M241.69,-404.44C205.53,-418.01 149.78,-438.94 114.63,-452.14"/>
<polygon fill="#3d6eb8" stroke="black" points="112.99,-449.02 104.86,-455.81 115.45,-455.57 112.99,-449.02"/>
</g>
<!-- src_repositories&#45;&gt;src_models -->
<g id="edge13" class="edge">
<title>src_repositories&#45;&gt;src_models</title><style>.edge>path:hover{stroke-width:8}</style>
<path fill="none" stroke="black" d="M277,-411.57C277,-419.43 277,-428.53 277,-436.94"/>
<polygon fill="#3d6eb8" stroke="black" points="273.5,-437.08 277,-447.08 280.5,-437.08 273.5,-437.08"/>
</g>
<!-- src_routers_apis&#45;&gt;src_facade -->
<g id="edge10" class="edge">
<title>src_routers_apis&#45;&gt;src_facade</title><style>.edge>path:hover{stroke-width:8}</style>
<path fill="none" stroke="black" d="M177,-232.97C173.8,-257.63 192.87,-279.35 211.01,-294.08"/>
<polygon fill="#3a69b0" stroke="black" points="209.12,-297.04 219.19,-300.34 213.37,-291.48 209.12,-297.04"/>
</g>
<!-- src_routers_apis&#45;&gt;src_routers_schemas -->
<g id="edge17" class="edge">
<title>src_routers_apis&#45;&gt;src_routers_schemas</title><style>.edge>path:hover{stroke-width:8}</style>
<path fill="none" stroke="black" d="M245,-167.09C245,-175.13 245,-184.03 245,-192.57"/>
<polygon fill="#3a69b0" stroke="black" points="241.5,-192.73 245,-202.73 248.5,-192.73 241.5,-192.73"/>
</g>
<!-- fastapiutils -->
<g id="node10" class="node">
<title>fastapiutils</title><style>.edge>path:hover{stroke-width:8}</style>
<polygon fill="#9eb34c" stroke="black" points="174,-408.18 171,-412.18 150,-412.18 147,-408.18 110,-408.18 110,-372.18 174,-372.18 174,-408.18"/>
<text text-anchor="middle" x="142" y="-387.68" font-family="Helvetica,sans-Serif" font-size="10.00" fill="#000000">fastapiutils</text>
</g>
<!-- src_routers_apis&#45;&gt;fastapiutils -->
<g id="edge3" class="edge">
<title>src_routers_apis&#45;&gt;fastapiutils</title><style>.edge>path:hover{stroke-width:8}</style>
<path fill="none" stroke="black" d="M220.56,-159.07C202.62,-175.99 180.76,-202.02 177,-230.97"/>
<path fill="none" stroke="black" d="M177,-232.97C171.04,-278.83 158.05,-331.06 149.67,-362.01"/>
<polygon fill="#3a69b0" stroke="black" points="146.2,-361.46 146.93,-372.03 152.95,-363.31 146.2,-361.46"/>
</g>
<!-- fastapiutils&#45;&gt;fastapi -->
<g id="edge1" class="edge">
<title>fastapiutils&#45;&gt;fastapi</title><style>.edge>path:hover{stroke-width:8}</style>
<path fill="none" stroke="black" d="M109.77,-406.62C78.56,-422.39 34.85,-446.97 27,-464.39"/>
</g>
</g>
</svg>
